<?xml version="1.0" encoding="utf-8" standalone="no"?>
<!DOCTYPE svg PUBLIC "-//W3C//DTD SVG 1.1//EN"
  "http://www.w3.org/Graphics/SVG/1.1/DTD/svg11.dtd">
<!-- Created with matplotlib (https://matplotlib.org/) -->
<svg height="360pt" version="1.1" viewBox="0 0 360 360" width="360pt" xmlns="http://www.w3.org/2000/svg" xmlns:xlink="http://www.w3.org/1999/xlink">
 <metadata>
  <rdf:RDF xmlns:cc="http://creativecommons.org/ns#" xmlns:dc="http://purl.org/dc/elements/1.1/" xmlns:rdf="http://www.w3.org/1999/02/22-rdf-syntax-ns#">
   <cc:Work>
    <dc:type rdf:resource="http://purl.org/dc/dcmitype/StillImage"/>
    <dc:date>2020-11-22T12:10:25.758865</dc:date>
    <dc:format>image/svg+xml</dc:format>
    <dc:creator>
     <cc:Agent>
      <dc:title>Matplotlib v3.3.2, https://matplotlib.org/</dc:title>
     </cc:Agent>
    </dc:creator>
   </cc:Work>
  </rdf:RDF>
 </metadata>
 <defs>
  <style type="text/css">*{stroke-linecap:butt;stroke-linejoin:round;}</style>
 </defs>
 <g id="figure_1">
  <g id="patch_1">
   <path d="M 0 360 
L 360 360 
L 360 0 
L 0 0 
z
" style="fill:#ffffff;"/>
  </g>
  <g id="axes_1">
   <g id="patch_2">
    <path d="M 45 320.4 
L 324 320.4 
L 324 43.2 
L 45 43.2 
z
" style="fill:#e5e5e5;"/>
   </g>
   <g id="matplotlib.axis_1">
    <g id="xtick_1">
     <g id="line2d_1">
      <path clip-path="url(#p02a7d25130)" d="M 45 320.4 
L 45 43.2 
" style="fill:none;stroke:#ffffff;stroke-linecap:square;stroke-width:0.8;"/>
     </g>
     <g id="line2d_2">
      <defs>
       <path d="M 0 0 
L 0 3.5 
" id="m8973faf7be" style="stroke:#555555;stroke-width:0.8;"/>
      </defs>
      <g>
       <use style="fill:#555555;stroke:#555555;stroke-width:0.8;" x="45" xlink:href="#m8973faf7be" y="320.4"/>
      </g>
     </g>
     <g id="text_1">
      <text style="fill:#555555;font-family:DejaVu Sans;font-size:10px;font-stretch:normal;font-style:normal;font-weight:normal;text-anchor:middle;" transform="rotate(-0, 45, 334.998438)" x="45" y="334.998438">−1.0</text>
     </g>
    </g>
    <g id="xtick_2">
     <g id="line2d_3">
      <path clip-path="url(#p02a7d25130)" d="M 79.875 320.4 
L 79.875 43.2 
" style="fill:none;stroke:#ffffff;stroke-linecap:square;stroke-width:0.8;"/>
     </g>
     <g id="line2d_4">
      <g>
       <use style="fill:#555555;stroke:#555555;stroke-width:0.8;" x="79.875" xlink:href="#m8973faf7be" y="320.4"/>
      </g>
     </g>
     <g id="text_2">
      <text style="fill:#555555;font-family:DejaVu Sans;font-size:10px;font-stretch:normal;font-style:normal;font-weight:normal;text-anchor:middle;" transform="rotate(-0, 79.875, 334.998438)" x="79.875" y="334.998438">−0.5</text>
     </g>
    </g>
    <g id="xtick_3">
     <g id="line2d_5">
      <path clip-path="url(#p02a7d25130)" d="M 114.75 320.4 
L 114.75 43.2 
" style="fill:none;stroke:#ffffff;stroke-linecap:square;stroke-width:0.8;"/>
     </g>
     <g id="line2d_6">
      <g>
       <use style="fill:#555555;stroke:#555555;stroke-width:0.8;" x="114.75" xlink:href="#m8973faf7be" y="320.4"/>
      </g>
     </g>
     <g id="text_3">
      <text style="fill:#555555;font-family:DejaVu Sans;font-size:10px;font-stretch:normal;font-style:normal;font-weight:normal;text-anchor:middle;" transform="rotate(-0, 114.75, 334.998438)" x="114.75" y="334.998438">0.0</text>
     </g>
    </g>
    <g id="xtick_4">
     <g id="line2d_7">
      <path clip-path="url(#p02a7d25130)" d="M 149.625 320.4 
L 149.625 43.2 
" style="fill:none;stroke:#ffffff;stroke-linecap:square;stroke-width:0.8;"/>
     </g>
     <g id="line2d_8">
      <g>
       <use style="fill:#555555;stroke:#555555;stroke-width:0.8;" x="149.625" xlink:href="#m8973faf7be" y="320.4"/>
      </g>
     </g>
     <g id="text_4">
      <text style="fill:#555555;font-family:DejaVu Sans;font-size:10px;font-stretch:normal;font-style:normal;font-weight:normal;text-anchor:middle;" transform="rotate(-0, 149.625, 334.998438)" x="149.625" y="334.998438">0.5</text>
     </g>
    </g>
    <g id="xtick_5">
     <g id="line2d_9">
      <path clip-path="url(#p02a7d25130)" d="M 184.5 320.4 
L 184.5 43.2 
" style="fill:none;stroke:#ffffff;stroke-linecap:square;stroke-width:0.8;"/>
     </g>
     <g id="line2d_10">
      <g>
       <use style="fill:#555555;stroke:#555555;stroke-width:0.8;" x="184.5" xlink:href="#m8973faf7be" y="320.4"/>
      </g>
     </g>
     <g id="text_5">
      <text style="fill:#555555;font-family:DejaVu Sans;font-size:10px;font-stretch:normal;font-style:normal;font-weight:normal;text-anchor:middle;" transform="rotate(-0, 184.5, 334.998438)" x="184.5" y="334.998438">1.0</text>
     </g>
    </g>
    <g id="xtick_6">
     <g id="line2d_11">
      <path clip-path="url(#p02a7d25130)" d="M 219.375 320.4 
L 219.375 43.2 
" style="fill:none;stroke:#ffffff;stroke-linecap:square;stroke-width:0.8;"/>
     </g>
     <g id="line2d_12">
      <g>
       <use style="fill:#555555;stroke:#555555;stroke-width:0.8;" x="219.375" xlink:href="#m8973faf7be" y="320.4"/>
      </g>
     </g>
     <g id="text_6">
      <text style="fill:#555555;font-family:DejaVu Sans;font-size:10px;font-stretch:normal;font-style:normal;font-weight:normal;text-anchor:middle;" transform="rotate(-0, 219.375, 334.998438)" x="219.375" y="334.998438">1.5</text>
     </g>
    </g>
    <g id="xtick_7">
     <g id="line2d_13">
      <path clip-path="url(#p02a7d25130)" d="M 254.25 320.4 
L 254.25 43.2 
" style="fill:none;stroke:#ffffff;stroke-linecap:square;stroke-width:0.8;"/>
     </g>
     <g id="line2d_14">
      <g>
       <use style="fill:#555555;stroke:#555555;stroke-width:0.8;" x="254.25" xlink:href="#m8973faf7be" y="320.4"/>
      </g>
     </g>
     <g id="text_7">
      <text style="fill:#555555;font-family:DejaVu Sans;font-size:10px;font-stretch:normal;font-style:normal;font-weight:normal;text-anchor:middle;" transform="rotate(-0, 254.25, 334.998438)" x="254.25" y="334.998438">2.0</text>
     </g>
    </g>
    <g id="xtick_8">
     <g id="line2d_15">
      <path clip-path="url(#p02a7d25130)" d="M 289.125 320.4 
L 289.125 43.2 
" style="fill:none;stroke:#ffffff;stroke-linecap:square;stroke-width:0.8;"/>
     </g>
     <g id="line2d_16">
      <g>
       <use style="fill:#555555;stroke:#555555;stroke-width:0.8;" x="289.125" xlink:href="#m8973faf7be" y="320.4"/>
      </g>
     </g>
     <g id="text_8">
      <text style="fill:#555555;font-family:DejaVu Sans;font-size:10px;font-stretch:normal;font-style:normal;font-weight:normal;text-anchor:middle;" transform="rotate(-0, 289.125, 334.998438)" x="289.125" y="334.998438">2.5</text>
     </g>
    </g>
    <g id="xtick_9">
     <g id="line2d_17">
      <path clip-path="url(#p02a7d25130)" d="M 324 320.4 
L 324 43.2 
" style="fill:none;stroke:#ffffff;stroke-linecap:square;stroke-width:0.8;"/>
     </g>
     <g id="line2d_18">
      <g>
       <use style="fill:#555555;stroke:#555555;stroke-width:0.8;" x="324" xlink:href="#m8973faf7be" y="320.4"/>
      </g>
     </g>
     <g id="text_9">
      <text style="fill:#555555;font-family:DejaVu Sans;font-size:10px;font-stretch:normal;font-style:normal;font-weight:normal;text-anchor:middle;" transform="rotate(-0, 324, 334.998438)" x="324" y="334.998438">3.0</text>
     </g>
    </g>
   </g>
   <g id="matplotlib.axis_2">
    <g id="ytick_1">
     <g id="line2d_19">
      <path clip-path="url(#p02a7d25130)" d="M 45 292.68 
L 324 292.68 
" style="fill:none;stroke:#ffffff;stroke-linecap:square;stroke-width:0.8;"/>
     </g>
     <g id="line2d_20">
      <defs>
       <path d="M 0 0 
L -3.5 0 
" id="mbdd5336499" style="stroke:#555555;stroke-width:0.8;"/>
      </defs>
      <g>
       <use style="fill:#555555;stroke:#555555;stroke-width:0.8;" x="45" xlink:href="#mbdd5336499" y="292.68"/>
      </g>
     </g>
     <g id="text_10">
      <text style="fill:#555555;font-family:DejaVu Sans;font-size:10px;font-stretch:normal;font-style:normal;font-weight:normal;text-anchor:end;" transform="rotate(-0, 38, 296.479219)" x="38" y="296.479219">0</text>
     </g>
    </g>
    <g id="ytick_2">
     <g id="line2d_21">
      <path clip-path="url(#p02a7d25130)" d="M 45 237.24 
L 324 237.24 
" style="fill:none;stroke:#ffffff;stroke-linecap:square;stroke-width:0.8;"/>
     </g>
     <g id="line2d_22">
      <g>
       <use style="fill:#555555;stroke:#555555;stroke-width:0.8;" x="45" xlink:href="#mbdd5336499" y="237.24"/>
      </g>
     </g>
     <g id="text_11">
      <text style="fill:#555555;font-family:DejaVu Sans;font-size:10px;font-stretch:normal;font-style:normal;font-weight:normal;text-anchor:end;" transform="rotate(-0, 38, 241.039219)" x="38" y="241.039219">1</text>
     </g>
    </g>
    <g id="ytick_3">
     <g id="line2d_23">
      <path clip-path="url(#p02a7d25130)" d="M 45 181.8 
L 324 181.8 
" style="fill:none;stroke:#ffffff;stroke-linecap:square;stroke-width:0.8;"/>
     </g>
     <g id="line2d_24">
      <g>
       <use style="fill:#555555;stroke:#555555;stroke-width:0.8;" x="45" xlink:href="#mbdd5336499" y="181.8"/>
      </g>
     </g>
     <g id="text_12">
      <text style="fill:#555555;font-family:DejaVu Sans;font-size:10px;font-stretch:normal;font-style:normal;font-weight:normal;text-anchor:end;" transform="rotate(-0, 38, 185.599219)" x="38" y="185.599219">2</text>
     </g>
    </g>
    <g id="ytick_4">
     <g id="line2d_25">
      <path clip-path="url(#p02a7d25130)" d="M 45 126.36 
L 324 126.36 
" style="fill:none;stroke:#ffffff;stroke-linecap:square;stroke-width:0.8;"/>
     </g>
     <g id="line2d_26">
      <g>
       <use style="fill:#555555;stroke:#555555;stroke-width:0.8;" x="45" xlink:href="#mbdd5336499" y="126.36"/>
      </g>
     </g>
     <g id="text_13">
      <text style="fill:#555555;font-family:DejaVu Sans;font-size:10px;font-stretch:normal;font-style:normal;font-weight:normal;text-anchor:end;" transform="rotate(-0, 38, 130.159219)" x="38" y="130.159219">3</text>
     </g>
    </g>
    <g id="ytick_5">
     <g id="line2d_27">
      <path clip-path="url(#p02a7d25130)" d="M 45 70.92 
L 324 70.92 
" style="fill:none;stroke:#ffffff;stroke-linecap:square;stroke-width:0.8;"/>
     </g>
     <g id="line2d_28">
      <g>
       <use style="fill:#555555;stroke:#555555;stroke-width:0.8;" x="45" xlink:href="#mbdd5336499" y="70.92"/>
      </g>
     </g>
     <g id="text_14">
      <text style="fill:#555555;font-family:DejaVu Sans;font-size:10px;font-stretch:normal;font-style:normal;font-weight:normal;text-anchor:end;" transform="rotate(-0, 38, 74.719219)" x="38" y="74.719219">4</text>
     </g>
    </g>
   </g>
   <g id="line2d_29">
    <path clip-path="url(#p02a7d25130)" d="M 23.970426 -1 
L 24.568182 1.202828 
L 28.090909 13.901818 
L 31.613636 26.31798 
L 35.136364 38.451313 
L 38.659091 50.301818 
L 42.181818 61.869495 
L 45.704545 73.154343 
L 49.227273 84.156364 
L 52.75 94.875556 
L 56.272727 105.311919 
L 59.795455 115.465455 
L 63.318182 125.336162 
L 66.840909 134.92404 
L 70.363636 144.229091 
L 73.886364 153.251313 
L 77.409091 161.990707 
L 80.931818 170.447273 
L 84.454545 178.62101 
L 87.977273 186.511919 
L 91.5 194.12 
L 95.022727 201.445253 
L 98.545455 208.487677 
L 102.068182 215.247273 
L 105.590909 221.72404 
L 109.113636 227.91798 
L 112.636364 233.829091 
L 116.159091 239.457374 
L 119.681818 244.802828 
L 123.204545 249.865455 
L 126.727273 254.645253 
L 130.25 259.142222 
L 133.772727 263.356364 
L 137.295455 267.287677 
L 140.818182 270.936162 
L 144.340909 274.301818 
L 147.863636 277.384646 
L 151.386364 280.184646 
L 154.909091 282.701818 
L 158.431818 284.936162 
L 161.954545 286.887677 
L 165.477273 288.556364 
L 169 289.942222 
L 172.522727 291.045253 
L 176.045455 291.865455 
L 179.568182 292.402828 
L 183.090909 292.657374 
L 186.613636 292.629091 
L 190.136364 292.31798 
L 193.659091 291.72404 
L 197.181818 290.847273 
L 200.704545 289.687677 
L 204.227273 288.245253 
L 207.75 286.52 
L 211.272727 284.511919 
L 214.795455 282.22101 
L 218.318182 279.647273 
L 221.840909 276.790707 
L 225.363636 273.651313 
L 228.886364 270.229091 
L 232.409091 266.52404 
L 235.931818 262.536162 
L 239.454545 258.265455 
L 242.977273 253.711919 
L 246.5 248.875556 
L 250.022727 243.756364 
L 253.545455 238.354343 
L 257.068182 232.669495 
L 260.590909 226.701818 
L 264.113636 220.451313 
L 267.636364 213.91798 
L 271.159091 207.101818 
L 274.681818 200.002828 
L 278.204545 192.62101 
L 281.727273 184.956364 
L 285.25 177.008889 
L 288.772727 168.778586 
L 292.295455 160.265455 
L 295.818182 151.469495 
L 299.340909 142.390707 
L 302.863636 133.029091 
L 306.386364 123.384646 
L 309.909091 113.457374 
L 313.431818 103.247273 
L 316.954545 92.754343 
L 320.477273 81.978586 
L 324 70.92 
" style="fill:none;stroke:#e24a33;stroke-linecap:square;stroke-width:1.5;"/>
   </g>
   <g id="line2d_30">
    <path clip-path="url(#p02a7d25130)" d="M -1 145.237419 
L -0.090909 145.96 
L 3.431818 148.76 
L 6.954545 151.56 
L 10.477273 154.36 
L 14 157.16 
L 17.522727 159.96 
L 21.045455 162.76 
L 24.568182 165.56 
L 28.090909 168.36 
L 31.613636 171.16 
L 35.136364 173.96 
L 38.659091 176.76 
L 42.181818 179.56 
L 45.704545 182.36 
L 49.227273 185.16 
L 52.75 187.96 
L 56.272727 190.76 
L 59.795455 193.56 
L 63.318182 196.36 
L 66.840909 199.16 
L 70.363636 201.96 
L 73.886364 204.76 
L 77.409091 207.56 
L 80.931818 210.36 
L 84.454545 213.16 
L 87.977273 215.96 
L 91.5 218.76 
L 95.022727 221.56 
L 98.545455 224.36 
L 102.068182 227.16 
L 105.590909 229.96 
L 109.113636 232.76 
L 112.636364 235.56 
L 116.159091 238.36 
L 119.681818 241.16 
L 123.204545 243.96 
L 126.727273 246.76 
L 130.25 249.56 
L 133.772727 252.36 
L 137.295455 255.16 
L 140.818182 257.96 
L 144.340909 260.76 
L 147.863636 263.56 
L 151.386364 266.36 
L 154.909091 269.16 
L 158.431818 271.96 
L 161.954545 274.76 
L 165.477273 277.56 
L 169 280.36 
L 172.522727 283.16 
L 176.045455 285.96 
L 179.568182 288.76 
L 183.090909 291.56 
L 186.613636 291 
L 190.136364 288.2 
L 193.659091 285.4 
L 197.181818 282.6 
L 200.704545 279.8 
L 204.227273 277 
L 207.75 274.2 
L 211.272727 271.4 
L 214.795455 268.6 
L 218.318182 265.8 
L 221.840909 263 
L 225.363636 260.2 
L 228.886364 257.4 
L 232.409091 254.6 
L 235.931818 251.8 
L 239.454545 249 
L 242.977273 246.2 
L 246.5 243.4 
L 250.022727 240.6 
L 253.545455 237.8 
L 257.068182 235 
L 260.590909 232.2 
L 264.113636 229.4 
L 267.636364 226.6 
L 271.159091 223.8 
L 274.681818 221 
L 278.204545 218.2 
L 281.727273 215.4 
L 285.25 212.6 
L 288.772727 209.8 
L 292.295455 207 
L 295.818182 204.2 
L 299.340909 201.4 
L 302.863636 198.6 
L 306.386364 195.8 
L 309.909091 193 
L 313.431818 190.2 
L 316.954545 187.4 
L 320.477273 184.6 
L 324 181.8 
" style="fill:none;stroke:#348abd;stroke-linecap:square;stroke-width:1.5;"/>
   </g>
   <g id="line2d_31">
    <path clip-path="url(#p02a7d25130)" d="M -1 172.957419 
L -0.090909 173.68 
L 3.431818 176.48 
L 6.954545 179.28 
L 10.477273 182.08 
L 14 184.88 
L 17.522727 187.68 
L 21.045455 190.48 
L 24.568182 193.28 
L 28.090909 196.08 
L 31.613636 198.88 
L 35.136364 201.68 
L 38.659091 204.48 
L 42.181818 207.28 
L 45.704545 210.08 
L 49.227273 212.88 
L 52.75 215.68 
L 56.272727 218.48 
L 59.795455 221.28 
L 63.318182 224.08 
L 66.840909 226.88 
L 70.363636 229.68 
L 73.886364 232.48 
L 77.409091 235.28 
L 80.931818 238.08 
L 84.454545 240.88 
L 87.977273 243.68 
L 91.5 246.48 
L 95.022727 249.28 
L 98.545455 252.08 
L 102.068182 254.88 
L 105.590909 257.68 
L 109.113636 260.48 
L 112.636364 263.28 
L 116.159091 266.068687 
L 119.681818 268.741414 
L 123.204545 271.272727 
L 126.727273 273.662626 
L 130.25 275.911111 
L 133.772727 278.018182 
L 137.295455 279.983838 
L 140.818182 281.808081 
L 144.340909 283.490909 
L 147.863636 285.032323 
L 151.386364 286.432323 
L 154.909091 287.690909 
L 158.431818 288.808081 
L 161.954545 289.783838 
L 165.477273 290.618182 
L 169 291.311111 
L 172.522727 291.862626 
L 176.045455 292.272727 
L 179.568182 292.541414 
L 183.090909 292.668687 
L 186.613636 292.654545 
L 190.136364 292.49899 
L 193.659091 292.20202 
L 197.181818 291.763636 
L 200.704545 291.183838 
L 204.227273 290.462626 
L 207.75 289.6 
L 211.272727 288.59596 
L 214.795455 287.450505 
L 218.318182 286.163636 
L 221.840909 284.735354 
L 225.363636 283.165657 
L 228.886364 281.454545 
L 232.409091 279.60202 
L 235.931818 277.608081 
L 239.454545 275.472727 
L 242.977273 273.19596 
L 246.5 270.777778 
L 250.022727 268.218182 
L 253.545455 265.517172 
L 257.068182 262.72 
L 260.590909 259.92 
L 264.113636 257.12 
L 267.636364 254.32 
L 271.159091 251.52 
L 274.681818 248.72 
L 278.204545 245.92 
L 281.727273 243.12 
L 285.25 240.32 
L 288.772727 237.52 
L 292.295455 234.72 
L 295.818182 231.92 
L 299.340909 229.12 
L 302.863636 226.32 
L 306.386364 223.52 
L 309.909091 220.72 
L 313.431818 217.92 
L 316.954545 215.12 
L 320.477273 212.32 
L 324 209.52 
" style="fill:none;stroke:#988ed5;stroke-linecap:square;stroke-width:1.5;"/>
   </g>
   <g id="line2d_32">
    <path clip-path="url(#p02a7d25130)" d="M -1 183.394377 
L -0.090909 184.11008 
L 3.431818 186.880614 
L 6.954545 189.648034 
L 10.477273 192.412014 
L 14 195.172192 
L 17.522727 197.928171 
L 21.045455 200.679512 
L 24.568182 203.425731 
L 28.090909 206.166294 
L 31.613636 208.900614 
L 35.136364 211.628044 
L 38.659091 214.34787 
L 42.181818 217.05931 
L 45.704545 219.761502 
L 49.227273 222.453499 
L 52.75 225.13426 
L 56.272727 227.802647 
L 59.795455 230.457407 
L 63.318182 233.097172 
L 66.840909 235.720445 
L 70.363636 238.325587 
L 73.886364 240.910813 
L 77.409091 243.474177 
L 80.931818 246.013561 
L 84.454545 248.526665 
L 87.977273 251.010995 
L 91.5 253.463855 
L 95.022727 255.882333 
L 98.545455 258.263298 
L 102.068182 260.603384 
L 105.590909 262.898993 
L 109.113636 265.146286 
L 112.636364 267.341186 
L 116.159091 269.479376 
L 119.681818 271.556313 
L 123.204545 273.567232 
L 126.727273 275.507171 
L 130.25 277.370988 
L 133.772727 279.153391 
L 137.295455 280.848978 
L 140.818182 282.452279 
L 144.340909 283.957802 
L 147.863636 285.360095 
L 151.386364 286.653806 
L 154.909091 287.833755 
L 158.431818 288.894998 
L 161.954545 289.832908 
L 165.477273 290.643246 
L 169 291.322232 
L 172.522727 291.866612 
L 176.045455 292.273721 
L 179.568182 292.541529 
L 183.090909 292.668688 
L 186.613636 292.654549 
L 190.136364 292.499187 
L 193.659091 292.203388 
L 197.181818 291.768641 
L 200.704545 291.197107 
L 204.227273 290.491573 
L 207.75 289.655402 
L 211.272727 288.692473 
L 214.795455 287.607107 
L 218.318182 286.404002 
L 221.840909 285.088153 
L 225.363636 283.664782 
L 228.886364 282.139265 
L 232.409091 280.517068 
L 235.931818 278.803681 
L 239.454545 277.004566 
L 242.977273 275.125106 
L 246.5 273.170565 
L 250.022727 271.146051 
L 253.545455 269.05649 
L 257.068182 266.906601 
L 260.590909 264.700885 
L 264.113636 262.44361 
L 267.636364 260.138806 
L 271.159091 257.790264 
L 274.681818 255.401535 
L 278.204545 252.975937 
L 281.727273 250.516557 
L 285.25 248.026263 
L 288.772727 245.50771 
L 292.295455 242.963352 
L 295.818182 240.395452 
L 299.340909 237.806092 
L 302.863636 235.197186 
L 306.386364 232.570489 
L 309.909091 229.927609 
L 313.431818 227.270018 
L 316.954545 224.59906 
L 320.477273 221.915963 
L 324 219.221848 
" style="fill:none;stroke:#777777;stroke-linecap:square;stroke-width:1.5;"/>
   </g>
   <g id="patch_3">
    <path d="M 45 320.4 
L 45 43.2 
" style="fill:none;stroke:#ffffff;stroke-linecap:square;stroke-linejoin:miter;"/>
   </g>
   <g id="patch_4">
    <path d="M 324 320.4 
L 324 43.2 
" style="fill:none;stroke:#ffffff;stroke-linecap:square;stroke-linejoin:miter;"/>
   </g>
   <g id="patch_5">
    <path d="M 45 320.4 
L 324 320.4 
" style="fill:none;stroke:#ffffff;stroke-linecap:square;stroke-linejoin:miter;"/>
   </g>
   <g id="patch_6">
    <path d="M 45 43.2 
L 324 43.2 
" style="fill:none;stroke:#ffffff;stroke-linecap:square;stroke-linejoin:miter;"/>
   </g>
   <g id="text_15">
    <text style="font-family:DejaVu Sans;font-size:14.4px;font-stretch:normal;font-style:normal;font-weight:normal;text-anchor:middle;" transform="rotate(-0, 184.5, 37.2)" x="184.5" y="37.2">Regression loss functions (y=1)</text>
   </g>
   <g id="legend_1">
    <g id="patch_7">
     <path d="M 126.873437 109.9125 
L 242.126563 109.9125 
Q 244.126563 109.9125 244.126563 107.9125 
L 244.126563 50.2 
Q 244.126563 48.2 242.126563 48.2 
L 126.873437 48.2 
Q 124.873437 48.2 124.873437 50.2 
L 124.873437 107.9125 
Q 124.873437 109.9125 126.873437 109.9125 
z
" style="fill:#e5e5e5;opacity:0.8;stroke:#cccccc;stroke-linejoin:miter;stroke-width:0.5;"/>
    </g>
    <g id="line2d_33">
     <path d="M 128.873437 56.298437 
L 148.873437 56.298437 
" style="fill:none;stroke:#e24a33;stroke-linecap:square;stroke-width:1.5;"/>
    </g>
    <g id="line2d_34"/>
    <g id="text_16">
     <text style="font-family:DejaVu Sans;font-size:10px;font-stretch:normal;font-style:normal;font-weight:normal;text-anchor:start;" transform="rotate(-0, 156.873437, 59.798437)" x="156.873437" y="59.798437">square</text>
    </g>
    <g id="line2d_35">
     <path d="M 128.873437 70.976562 
L 148.873437 70.976562 
" style="fill:none;stroke:#348abd;stroke-linecap:square;stroke-width:1.5;"/>
    </g>
    <g id="line2d_36"/>
    <g id="text_17">
     <text style="font-family:DejaVu Sans;font-size:10px;font-stretch:normal;font-style:normal;font-weight:normal;text-anchor:start;" transform="rotate(-0, 156.873437, 74.476562)" x="156.873437" y="74.476562">absolute</text>
    </g>
    <g id="line2d_37">
     <path d="M 128.873437 85.654687 
L 148.873437 85.654687 
" style="fill:none;stroke:#988ed5;stroke-linecap:square;stroke-width:1.5;"/>
    </g>
    <g id="line2d_38"/>
    <g id="text_18">
     <text style="font-family:DejaVu Sans;font-size:10px;font-stretch:normal;font-style:normal;font-weight:normal;text-anchor:start;" transform="rotate(-0, 156.873437, 89.154687)" x="156.873437" y="89.154687">Huber, delta = 1</text>
    </g>
    <g id="line2d_39">
     <path d="M 128.873437 100.332812 
L 148.873437 100.332812 
" style="fill:none;stroke:#777777;stroke-linecap:square;stroke-width:1.5;"/>
    </g>
    <g id="line2d_40"/>
    <g id="text_19">
     <text style="font-family:DejaVu Sans;font-size:10px;font-stretch:normal;font-style:normal;font-weight:normal;text-anchor:start;" transform="rotate(-0, 156.873437, 103.832812)" x="156.873437" y="103.832812">log-ch</text>
    </g>
   </g>
  </g>
 </g>
 <defs>
  <clipPath id="p02a7d25130">
   <rect height="277.2" width="279" x="45" y="43.2"/>
  </clipPath>
 </defs>
</svg>
